<?xml version="1.0" encoding="iso-8859-1"?>
<!-- Generator: Adobe Illustrator 19.0.0, SVG Export Plug-In . SVG Version: 6.00 Build 0)  -->
<svg version="1.1" id="Layer_1" xmlns="http://www.w3.org/2000/svg" xmlns:xlink="http://www.w3.org/1999/xlink" x="0px" y="0px"
	 viewBox="0 0 330 330" style="enable-background:new 0 0 330 330;" xml:space="preserve">
<path id="XMLID_501_" d="M322.009,53.912c-4.915-2.598-10.866-2.264-15.459,0.868l-80.898,55.158V67.174c0-8.284-6.716-15-15-15H15
	c-8.284,0-15,6.716-15,15v195.652c0,8.284,6.716,15,15,15h195.652c8.284,0,15-6.716,15-15v-42.763l80.898,55.157
	c2.538,1.73,5.489,2.607,8.451,2.607c2.4,0,4.808-0.575,7.008-1.738c4.916-2.598,7.991-7.702,7.991-13.262V67.174
	C330,61.614,326.925,56.51,322.009,53.912z M195.652,247.826H30V82.174h165.652v56.146v53.36V247.826z M300,234.444l-74.348-50.691
	v-37.505L300,95.556V234.444z"/>
<g>
</g>
<g>
</g>
<g>
</g>
<g>
</g>
<g>
</g>
<g>
</g>
<g>
</g>
<g>
</g>
<g>
</g>
<g>
</g>
<g>
</g>
<g>
</g>
<g>
</g>
<g>
</g>
<g>
</g>
</svg>
